<?xml version="1.0" encoding="utf-8" standalone="yes"?>
<!DOCTYPE svg PUBLIC "-//W3C//DTD SVG 1.1//EN" "http://www.w3.org/Graphics/SVG/1.1/DTD/svg11.dtd">
<svg width="845" height="568" viewBox="0 0 845 568" style="fill:none;stroke:none;fill-rule:evenodd;clip-rule:evenodd;stroke-linecap:round;stroke-linejoin:round;stroke-miterlimit:1.5;" version="1.1" xmlns="http://www.w3.org/2000/svg" xmlns:xlink="http://www.w3.org/1999/xlink"><style class="text-font-style fontImports" data-font-family="Shantell Sans">@import url('https://fonts.googleapis.com/css2?family=Shantell+Sans:wght@300..800&amp;display=block');</style><g id="items" style="isolation: isolate"><g id="blend" style="mix-blend-mode: normal"><g id="g-root-0.cu_sy_1hi7f4r10yao7e-fill" data-item-order="-304122" transform="translate(16, 196)"><g id="0.cu_sy_1hi7f4r10yao7e-fill" stroke="none" fill="#ebebeb"><g><path d="M 238.8 188.2L 250.3 144.2L 231.4 137.3L 219.5 183.2ZM 231.4 137.3L 188.8 226.2L 207.5 233.5L 250.3 144.2ZM 207.5 233.5L 248.8 96.9L 230.2 89.3L 188.8 226.2ZM 230.2 89.3L 152.9 239.3L 171.4 247.1L 248.8 96.9ZM 171.4 247.1L 231.5 66.3L 212.8 59.3L 152.9 239.3ZM 212.8 59.3L 134.1 246.8L 152.9 253.6L 231.5 66.3ZM 152.9 253.6L 216.1 48L 197.2 41.2L 134.1 246.8ZM 197.2 41.2L 112.7 246.2L 131.5 253L 216.1 48ZM 131.5 253L 201.7 33.8L 183.1 26.4L 112.7 246.2ZM 183.1 26.4L 81.4 239.3L 99.9 246.9L 201.7 33.8ZM 99.9 246.9L 178.3 23.5L 159.7 16.2L 81.4 239.3ZM 159.7 16.2L 67.1 228.2L 85.8 235.3L 178.3 23.5ZM 85.8 235.3L 159.5 13.8L 140.9 6.4L 67.1 228.2ZM 140.9 6.4L 43.3 218.9L 61.9 226.4L 159.5 13.8ZM 61.9 226.4L 136.5 14.3L 117.9 7L 43.3 218.9ZM 117.9 7L 32.2 204L 50.9 211.2L 136.5 14.3ZM 50.9 211.2L 115.6 21.2L 97.1 13.4L 32.2 204ZM 97.1 13.4L 12.2 178.7L 30.6 186.7L 115.6 21.2ZM 30.6 186.7L 85.1 32.2L 66.8 23.9L 12.2 178.7ZM 66.8 23.9L 5.3 134.1L 23.5 142.5L 85.1 32.2ZM 23.5 142.5L 55.4 57L 36.7 50L 5.3 134.1Z" fill-rule="nonzero"></path></g></g></g><g id="g-root-4.cu_sy_1d2dx0b10yaozn-fill" data-item-order="-304118" transform="translate(232.0087890625, 352)"><g id="4.cu_sy_1d2dx0b10yaozn-fill" stroke="none" fill="#ffd7ef"><g><path d="M 591.791211 157.3L 592.191211 161.7L 571.891211 153.2L 547.391211 158.3L 564.091211 174.4L 576.391211 170.9L 574.291211 167ZM 564.091211 174.4L 587.991211 73.3L 568.991211 66.5L 547.391211 158.3ZM 568.991211 66.5L 521.991211 161.3L 540.791211 168.4L 587.991211 73.3ZM 540.791211 168.4L 565.191211 79.4L 546.391211 72.4L 521.991211 161.3ZM 546.391211 72.4L 505.091211 158.1L 524.191211 164.4L 565.191211 79.4ZM 524.191211 164.4L 540.991211 79.1L 521.791211 72.9L 505.091211 158.1ZM 521.791211 72.9L 481.891211 158.7L 500.891211 165.3L 540.991211 79.1ZM 500.891211 165.3L 522.691211 72.3L 503.691211 65.9L 481.891211 158.7ZM 503.691211 65.9L 459.691211 164.4L 479.091211 170L 522.691211 72.3ZM 479.091211 170L 492.991211 77.2L 473.491211 71.7L 459.691211 164.4ZM 473.491211 71.7L 434.091211 164.2L 453.291211 170.2L 492.991211 77.2ZM 453.291211 170.2L 472.491211 77.9L 453.391211 71.8L 434.091211 164.2ZM 453.391211 71.8L 414.791211 160.6L 434.291211 165.9L 472.491211 77.9ZM 434.291211 165.9L 445.891211 71L 426.391211 66.1L 414.791211 160.6ZM 426.391211 66.1L 390.291211 158L 409.591211 163.7L 445.891211 71ZM 409.591211 163.7L 426.591211 78.4L 407.491211 72L 390.291211 158ZM 407.491211 72L 363.091211 162.4L 382.191211 168.8L 426.591211 78.4ZM 382.191211 168.8L 400.491211 73.9L 381.191211 68.4L 363.091211 162.4ZM 381.191211 68.4L 346.991211 157.8L 366.291211 163.4L 400.491211 73.9ZM 366.291211 163.4L 383.891211 77.1L 364.891211 70.4L 346.991211 157.8ZM 364.891211 70.4L 318.691211 158.9L 337.391211 166.2L 383.891211 77.1ZM 337.391211 166.2L 361.791211 76.3L 343.091211 68.7L 318.691211 158.9ZM 343.091211 68.7L 294.291211 156.3L 313.091211 163.5L 361.791211 76.3ZM 313.091211 163.5L 334.091211 71.2L 314.991211 65L 294.291211 156.3ZM 314.991211 65L 274.591211 158.2L 293.491211 164.8L 334.091211 71.2ZM 293.491211 164.8L 317.891211 76.8L 298.991211 69.9L 274.591211 158.2ZM 298.991211 69.9L 257.191211 161.6L 276.391211 167.7L 317.891211 76.8ZM 276.391211 167.7L 294.491211 72.1L 275.391211 65.7L 257.191211 161.6ZM 275.391211 65.7L 229.591211 158.8L 248.591211 165.5L 294.491211 72.1ZM 248.591211 165.5L 269.491211 70.3L 250.291211 64.6L 229.591211 158.8ZM 250.291211 64.6L 213.591211 160.8L 232.891211 166.3L 269.491211 70.3ZM 232.891211 166.3L 249.991211 75.5L 230.791211 69.4L 213.591211 160.8ZM 230.791211 69.4L 187.791211 163.4L 207.191211 169.2L 249.991211 75.5ZM 207.191211 169.2L 222.291211 71.4L 202.891211 66.2L 187.791211 163.4ZM 202.891211 66.2L 166.191211 158.9L 185.591211 164.3L 222.291211 71.4ZM 185.591211 164.3L 201.391211 74.1L 182.191211 68L 166.191211 158.9ZM 182.191211 68L 141.791211 153.3L 160.891211 159.8L 201.391211 74.1ZM 160.891211 159.8L 178.391211 76.4L 159.391211 69.7L 141.791211 153.3ZM 159.391211 69.7L 125.691211 136.3L 144.891211 142.7L 178.391211 76.4ZM 144.891211 142.7L 157.891211 70.8L 138.991211 63.3L 125.691211 136.3ZM 138.991211 63.3L 102.591211 120.5L 121.091211 128.6L 157.891211 70.8ZM 121.091211 128.6L 139.591211 58.8L 120.891211 51.2L 102.591211 120.5ZM 120.891211 51.2L 90.391211 105.2L 109.691211 111.8L 139.591211 58.8ZM 109.691211 111.8L 118.691211 48L 99.491211 40.7L 90.391211 105.2ZM 99.491211 40.7L 69.391211 86.9L 88.591211 94L 118.691211 48ZM 88.591211 94L 95.691211 39.7L 76.491211 32.4L 69.391211 86.9ZM 76.491211 32.4L 46.491211 77L 64.891211 85.5L 95.691211 39.7ZM 64.891211 85.5L 78.991211 34L 61.091211 23.8L 46.491211 77ZM 61.091211 23.8L 26.391211 59.9L 43.691211 70.8L 78.991211 34ZM 43.691211 70.8L 58.691211 30.7L 41.991211 18.3L 26.391211 59.9ZM 41.991211 18.3L 7.091211 45.2L 23.391211 57.9L 58.691211 30.7ZM 23.391211 57.9L 31.091211 40.3L 12.791211 32.2L 7.091211 45.2Z" fill-rule="nonzero"></path></g></g></g><g id="g-root-3.cu_sy_1d2dx0b10yaozo-fill" data-item-order="-304114" transform="translate(250.50634765625, 316)"><g id="3.cu_sy_1d2dx0b10yaozo-fill" stroke="none" fill="#e7e1ff"><g><path d="M 572.393652 108.3L 573.093652 97.5L 553.793652 87L 552.493652 107ZM 553.793652 87L 534.093652 101.8L 553.393652 112.4L 573.093652 97.5ZM 553.393652 112.4L 560.893652 13.3L 541.193652 8.7L 534.093652 101.8ZM 541.193652 8.7L 503.993652 103.4L 523.493652 108.2L 560.893652 13.3ZM 523.493652 108.2L 533.993652 14.1L 514.393652 9.7L 503.993652 103.4ZM 514.393652 9.7L 482.293652 104.3L 501.793652 109.1L 533.993652 14.1ZM 501.793652 109.1L 517.293652 9.7L 497.793652 5L 482.293652 104.3ZM 497.793652 5L 465.093652 102.4L 484.993652 106.2L 517.293652 9.7ZM 484.993652 106.2L 489.293652 15.5L 469.493652 11.4L 465.093652 102.4ZM 469.493652 11.4L 436.893652 97.7L 456.393652 102.6L 489.293652 15.5ZM 456.393652 102.6L 467.293652 12.5L 447.693652 8.2L 436.893652 97.7ZM 447.693652 8.2L 417.493652 104.5L 437.093652 108.7L 467.293652 12.5ZM 437.093652 108.7L 447.893652 16.2L 428.393652 11.4L 417.493652 104.5ZM 428.393652 11.4L 393.693652 101.3L 413.193652 106.5L 447.893652 16.2ZM 413.193652 106.5L 427.893652 11.6L 408.293652 7.1L 393.693652 101.3ZM 408.293652 7.1L 377.093652 106.8L 396.993652 110.3L 427.893652 11.6ZM 396.993652 110.3L 400.893652 17.3L 381.093652 13.2L 377.093652 106.8ZM 381.093652 13.2L 348.693652 99.2L 368.293652 103.8L 400.893652 17.3ZM 368.293652 103.8L 378.293652 9.9L 358.593652 6.1L 348.693652 99.2ZM 358.593652 6.1L 331.193652 103.6L 350.893652 107.6L 378.293652 9.9ZM 350.893652 107.6L 362.693652 14.7L 343.193652 9.5L 331.193652 103.6ZM 343.193652 9.5L 305.693652 99.9L 325.293652 105L 362.693652 14.7ZM 325.293652 105L 336.493652 10.3L 316.793652 6.4L 305.693652 99.9ZM 316.793652 6.4L 290.693652 100.1L 310.493652 103.8L 336.493652 10.3ZM 310.493652 103.8L 319.093652 14.4L 299.493652 9.3L 290.693652 100.1ZM 299.493652 9.3L 260.393652 98.6L 279.993652 103.8L 319.093652 14.4ZM 279.993652 103.8L 289.593652 14.6L 269.893652 10.4L 260.393652 98.6ZM 269.893652 10.4L 240.793652 102.4L 260.293652 106.8L 289.593652 14.6ZM 260.293652 106.8L 274.093652 9.7L 254.593652 4.9L 240.793652 102.4ZM 254.593652 4.9L 220.793652 99.9L 240.293652 104.7L 274.093652 9.7ZM 240.293652 104.7L 253.093652 16.1L 233.593652 11.2L 220.793652 99.9ZM 233.593652 11.2L 200.693652 101L 220.193652 105.9L 253.093652 16.1ZM 220.193652 105.9L 232.893652 15L 213.393652 10.1L 200.693652 101ZM 213.393652 10.1L 180.893652 99L 200.493652 103.7L 232.893652 15ZM 200.493652 103.7L 211.393652 10L 191.793652 5.3L 180.893652 99ZM 191.793652 5.3L 155.993652 101.4L 175.693652 105.6L 211.393652 10ZM 175.693652 105.6L 181.393652 15.1L 161.493652 11.8L 155.993652 101.4ZM 161.493652 11.8L 135.893652 104.5L 155.593652 108.1L 181.393652 15.1ZM 155.593652 108.1L 164.793652 13.7L 145.093652 9.4L 135.893652 104.5ZM 145.093652 9.4L 116.293652 91.3L 135.993652 95.8L 164.793652 13.7ZM 135.993652 95.8L 144.193652 18.5L 124.693652 12.6L 116.293652 91.3ZM 124.693652 12.6L 88.593652 81L 107.793652 87.6L 144.193652 18.5ZM 107.793652 87.6L 120.193652 18.5L 100.993652 12.3L 88.593652 81ZM 100.993652 12.3L 71.293652 74.5L 90.893652 79.9L 120.193652 18.5ZM 90.893652 79.9L 97.493652 10.1L 77.893652 4.8L 71.293652 74.5ZM 77.893652 4.8L 51.593652 61L 70.893652 67L 97.493652 10.1ZM 70.893652 67L 79.293652 14.1L 60.193652 7.1L 51.593652 61ZM 60.193652 7.1L 29.893652 58.1L 49.793652 63.8L 79.293652 14.1ZM 49.793652 63.8L 50.693652 14.5L 30.793652 8.4L 29.893652 58.1ZM 30.793652 8.4L 7.193652 44.6L 27.293652 50.4L 50.693652 14.5ZM 27.293652 50.4L 26.893652 31.2L 6.893652 31.5L 7.193652 44.6Z" fill-rule="nonzero"></path></g></g></g><g id="g-root-2.cu_sy_147dduj10yamml-fill" data-item-order="-304110" transform="translate(250.50634765625, 220)"><g id="2.cu_sy_147dduj10yamml-fill" stroke="none" fill="#d1f4ff"><g><path d="M 568.393652 28.4L 574.293652 13.8L 554.993652 8.2L 549.893652 20.8ZM 554.993652 8.2L 536.993652 107.8L 557.093652 108.8L 574.293652 13.8ZM 557.093652 108.8L 549.393652 9.5L 529.293652 8.8L 536.993652 107.8ZM 529.293652 8.8L 514.893652 105.9L 534.993652 106.3L 549.393652 9.5ZM 534.993652 106.3L 525.493652 13.4L 505.393652 13.8L 514.893652 105.9ZM 505.393652 13.8L 500.493652 103.2L 520.593652 102.1L 525.493652 13.4ZM 520.593652 102.1L 505.893652 12.8L 485.693652 12.7L 500.493652 103.2ZM 485.693652 12.7L 469.093652 106.6L 489.193652 108L 505.893652 12.8ZM 489.193652 108L 486.093652 13.8L 466.093652 12.7L 469.093652 106.6ZM 466.093652 12.7L 452.193652 107.3L 472.293652 107.8L 486.093652 13.8ZM 472.293652 107.8L 463.593652 15.4L 443.393652 15L 452.193652 107.3ZM 443.393652 15L 431.293652 105.5L 451.393652 105.7L 463.593652 15.4ZM 451.393652 105.7L 439.893652 7.5L 419.793652 7.7L 431.293652 105.5ZM 419.793652 7.7L 411.193652 101.5L 431.293652 101.4L 439.893652 7.5ZM 431.293652 101.4L 422.093652 11.3L 401.893652 10.3L 411.193652 101.5ZM 401.893652 10.3L 382.993652 105.8L 403.193652 106.7L 422.093652 11.3ZM 403.193652 106.7L 392.893652 9.9L 372.793652 9.6L 382.993652 105.8ZM 372.793652 9.6L 359.093652 107.2L 379.193652 107.8L 392.893652 9.9ZM 379.193652 107.8L 372.693652 16L 352.593652 15.6L 359.093652 107.2ZM 352.593652 15.6L 342.893652 101L 362.993652 101L 372.693652 16ZM 362.993652 101L 353.493652 14.9L 333.293652 14.4L 342.893652 101ZM 333.293652 14.4L 318.593652 105.6L 338.593652 106.7L 353.493652 14.9ZM 338.593652 106.7L 333.393652 12.1L 313.293652 10.5L 318.593652 105.6ZM 313.293652 10.5L 293.693652 99.1L 313.793652 101L 333.393652 12.1ZM 313.793652 101L 311.693652 15.8L 291.693652 14.2L 293.693652 99.1ZM 291.693652 14.2L 275.393652 101.8L 295.493652 102.9L 311.693652 15.8ZM 295.493652 102.9L 288.793652 9.1L 268.693652 7.9L 275.393652 101.8ZM 268.693652 7.9L 249.893652 107.4L 269.993652 108.4L 288.793652 9.1ZM 269.993652 108.4L 261.993652 11.3L 241.893652 10.9L 249.893652 107.4ZM 241.893652 10.9L 230.793652 102.5L 250.893652 102.7L 261.993652 11.3ZM 250.893652 102.7L 241.693652 10.4L 221.593652 10L 230.793652 102.5ZM 221.593652 10L 208.993652 104.2L 229.193652 104.4L 241.693652 10.4ZM 229.193652 104.4L 219.693652 16L 199.593652 15.8L 208.993652 104.2ZM 199.593652 15.8L 188.093652 105.4L 208.293652 105.3L 219.693652 16ZM 208.293652 105.3L 194.793652 11.1L 174.593652 11.1L 188.093652 105.4ZM 174.593652 11.1L 161.193652 100.2L 181.393652 100.3L 194.793652 11.1ZM 181.393652 100.3L 168.793652 8.3L 148.693652 8.7L 161.193652 100.2ZM 148.693652 8.7L 139.093652 104.8L 159.193652 104.6L 168.793652 8.3ZM 159.193652 104.6L 148.293652 18.4L 128.093652 18.5L 139.093652 104.8ZM 128.093652 18.5L 118.593652 100.3L 138.693652 100.5L 148.293652 18.4ZM 138.693652 100.5L 131.593652 22.2L 111.493652 21.6L 118.593652 100.3ZM 111.493652 21.6L 99.293652 104.2L 119.393652 104.8L 131.593652 22.2ZM 119.393652 104.8L 113.293652 29.8L 93.193652 28.6L 99.293652 104.2ZM 93.193652 28.6L 77.393652 105.5L 97.793652 105.7L 113.293652 29.8ZM 97.793652 105.7L 86.593652 45.3L 66.193652 44.9L 77.393652 105.5ZM 66.193652 44.9L 51.993652 107L 72.093652 109.1L 86.593652 45.3ZM 72.093652 109.1L 71.093652 48.7L 50.993652 46L 51.993652 107ZM 50.993652 46L 34.893652 102.1L 55.393652 103.3L 71.093652 48.7ZM 55.393652 103.3L 49.093652 65.4L 27.593652 57.7L 34.893652 102.1ZM 27.593652 57.7L 7.593652 75.4L 26.093652 85.7L 49.093652 65.4ZM 26.093652 85.7L 28.993652 68.8L 9.293652 65.4L 7.593652 75.4Z" fill-rule="nonzero"></path></g></g></g><g id="g-root-1.cu_sy_147dduj10yammm-fill" data-item-order="-304106" transform="translate(232.0087890625, 124)"><g id="1.cu_sy_147dduj10yammm-fill" stroke="none" fill="#c8ffe5"><g><path d="M 590.591211 23.9L 587.591211 12.2L 567.491211 14.7L 571.291211 29ZM 567.491211 14.7L 566.891211 105.7L 586.891211 103.4L 587.591211 12.2ZM 586.891211 103.4L 565.191211 10.3L 545.191211 12.4L 566.891211 105.7ZM 545.191211 12.4L 543.391211 109.4L 563.391211 107.6L 565.191211 10.3ZM 563.391211 107.6L 542.991211 7.1L 522.891211 8.7L 543.391211 109.4ZM 522.891211 8.7L 519.091211 105L 539.191211 103.8L 542.991211 7.1ZM 539.191211 103.8L 525.391211 14.8L 505.291211 15.4L 519.091211 105ZM 505.291211 15.4L 496.791211 104.5L 516.991211 103.4L 525.391211 14.8ZM 516.991211 103.4L 497.591211 9.2L 477.591211 11.1L 496.791211 104.5ZM 477.591211 11.1L 476.191211 105.5L 496.291211 103.5L 497.591211 9.2ZM 496.291211 103.5L 475.591211 6.7L 455.491211 8.2L 476.191211 105.5ZM 455.491211 8.2L 450.291211 104.7L 470.391211 104L 475.591211 6.7ZM 470.391211 104L 458.191211 8L 438.091211 9L 450.291211 104.7ZM 438.091211 9L 434.791211 104.6L 454.891211 102.8L 458.191211 8ZM 454.891211 102.8L 434.691211 9.6L 414.391211 10.8L 434.791211 104.6ZM 414.391211 10.8L 404.891211 102.7L 425.091211 101.6L 434.691211 9.6ZM 425.091211 101.6L 405.091211 9.8L 384.991211 11.6L 404.891211 102.7ZM 384.991211 11.6L 381.991211 102.3L 401.991211 100.9L 405.091211 9.8ZM 401.991211 100.9L 386.691211 13.5L 366.691211 14.9L 381.991211 102.3ZM 366.691211 14.9L 363.091211 109.1L 383.191211 107.2L 386.691211 13.5ZM 383.191211 107.2L 359.791211 6.4L 339.691211 8.4L 363.091211 109.1ZM 339.691211 8.4L 336.691211 107.3L 356.791211 105.7L 359.791211 6.4ZM 356.791211 105.7L 338.691211 13.4L 318.691211 15L 336.691211 107.3ZM 318.691211 15L 315.491211 109.3L 335.591211 107.7L 338.691211 13.4ZM 335.591211 107.7L 316.791211 9.2L 296.791211 10.7L 315.491211 109.3ZM 296.791211 10.7L 293.291211 108.9L 313.391211 107.3L 316.791211 9.2ZM 313.391211 107.3L 293.291211 6.6L 273.291211 8.5L 293.291211 108.9ZM 273.291211 8.5L 272.891211 101.8L 292.891211 99.5L 293.291211 6.6ZM 292.891211 99.5L 272.691211 12.2L 252.591211 14.1L 272.891211 101.8ZM 252.591211 14.1L 249.091211 107.5L 269.191211 105.8L 272.691211 12.2ZM 269.191211 105.8L 249.891211 14.1L 229.891211 15.8L 249.091211 107.5ZM 229.891211 15.8L 226.591211 108.6L 246.691211 107.6L 249.891211 14.1ZM 246.691211 107.6L 233.691211 11.3L 213.591211 11.7L 226.591211 108.6ZM 213.591211 11.7L 204.791211 105L 224.991211 104L 233.691211 11.3ZM 224.991211 104L 205.891211 9.7L 185.791211 11.1L 204.791211 105ZM 185.791211 11.1L 180.491211 104.1L 200.491211 103.4L 205.891211 9.7ZM 200.491211 103.4L 188.891211 11.6L 168.791211 11.6L 180.491211 104.1ZM 168.791211 11.6L 156.991211 104.8L 177.191211 104.2L 188.891211 11.6ZM 177.191211 104.2L 162.391211 22.9L 142.291211 24.1L 156.991211 104.8ZM 142.291211 24.1L 137.091211 115.1L 157.091211 114.7L 162.391211 22.9ZM 157.091211 114.7L 149.991211 34.5L 129.891211 34.3L 137.091211 115.1ZM 129.891211 34.3L 120.791211 121.3L 140.891211 120.5L 149.991211 34.5ZM 140.891211 120.5L 127.491211 48.6L 107.391211 50L 120.791211 121.3ZM 107.391211 50L 103.291211 132.8L 123.391211 131.2L 127.491211 48.6ZM 123.391211 131.2L 108.791211 64.5L 88.591211 65.9L 103.291211 132.8ZM 88.591211 65.9L 82.991211 135.6L 103.191211 133.8L 108.791211 64.5ZM 103.191211 133.8L 89.391211 81.6L 68.791211 82.1L 82.991211 135.6ZM 68.791211 82.1L 54.191211 150.9L 74.591211 151L 89.391211 81.6ZM 74.591211 151L 63.691211 95.4L 43.591211 96.9L 54.191211 150.9ZM 43.591211 96.9L 40.791211 157L 60.991211 153.8L 63.691211 95.4ZM 60.991211 153.8L 45.191211 112.3L 24.391211 113.9L 40.791211 157ZM 24.391211 113.9L 16.991211 147.8L 37.691211 146.8L 45.191211 112.3ZM 37.691211 146.8L 30.591211 125.1L 11.591211 131.2L 16.991211 147.8Z" fill-rule="nonzero"></path></g></g></g><g id="g-root-tx_explorin_147dduj10yammn-fill" data-item-order="0" transform="translate(136, 28)"><g id="tx_explorin_147dduj10yammn-fill" stroke="none" fill="#484848"><g><text style="font: bold 25px &quot;Shantell Sans&quot;, cursive; white-space: pre;" font-weight="bold" font-size="25px" font-family="'Shantell Sans', cursive"><tspan x="13.7" y="45" dominant-baseline="ideographic">Exploring Loan System API Best Practices</tspan></text></g></g></g><g id="g-root-shie_i0wcbf10yammd-fill" data-item-order="0" transform="translate(424, 148)"></g><g id="g-root-tx_security_mg3dcr10yaozt-fill" data-item-order="0" transform="translate(484, 160)"><g id="tx_security_mg3dcr10yaozt-fill" stroke="none" fill="#484848"><g><text style="font: 20px &quot;Shantell Sans&quot;, cursive; white-space: pre;" font-size="20px" font-family="'Shantell Sans', cursive"><tspan x="12" y="35" dominant-baseline="ideographic">Security</tspan></text></g></g></g><g id="g-root-spee_dg34nv10xqz9f-fill" data-item-order="0" transform="translate(424, 244)"></g><g id="g-root-tx_performa_mg3dcr10yaozu-fill" data-item-order="0" transform="translate(484, 256)"><g id="tx_performa_mg3dcr10yaozu-fill" stroke="none" fill="#484848"><g><text style="font: 20px &quot;Shantell Sans&quot;, cursive; white-space: pre;" font-size="20px" font-family="'Shantell Sans', cursive"><tspan x="12" y="35" dominant-baseline="ideographic">Performance</tspan></text></g></g></g><g id="g-root-tx_loansyst_zrjvq310yanew-fill" data-item-order="0" transform="translate(64, 280)"><g id="tx_loansyst_zrjvq310yanew-fill" stroke="none" fill="#484848"><g><text style="font: bold 20px &quot;Shantell Sans&quot;, cursive; white-space: pre;" font-weight="bold" font-size="20px" font-family="'Shantell Sans', cursive"><tspan x="13.01" y="35" dominant-baseline="ideographic">Loan System </tspan><tspan x="33.57" y="59" dominant-baseline="ideographic">API Best </tspan><tspan x="31.01" y="83" dominant-baseline="ideographic">Practices</tspan></text></g></g></g><g id="g-root-sync_1lt17q310xsdfy-fill" data-item-order="0" transform="translate(424, 340)"></g><g id="g-root-tx_versioni_mg3dcr10yaozv-fill" data-item-order="0" transform="translate(484, 352)"><g id="tx_versioni_mg3dcr10yaozv-fill" stroke="none" fill="#484848"><g><text style="font: 20px &quot;Shantell Sans&quot;, cursive; white-space: pre;" font-size="20px" font-family="'Shantell Sans', cursive"><tspan x="12" y="35" dominant-baseline="ideographic">Versioning</tspan></text></g></g></g><g id="g-root-open_zlxp3v10xttz5-fill" data-item-order="0" transform="translate(424, 436)"></g><g id="g-root-tx_document_i0wcbf10yammc-fill" data-item-order="0" transform="translate(484, 448)"><g id="tx_document_i0wcbf10yammc-fill" stroke="none" fill="#484848"><g><text style="font: 20px &quot;Shantell Sans&quot;, cursive; white-space: pre;" font-size="20px" font-family="'Shantell Sans', cursive"><tspan x="12" y="35" dominant-baseline="ideographic">Documentation</tspan></text></g></g></g><g id="g-root-0.cu_sy_1hi7f4r10yao7e-stroke" data-item-order="-304122" transform="translate(16, 196)"><g id="0.cu_sy_1hi7f4r10yao7e-stroke" fill="none" stroke-linecap="round" stroke-linejoin="round" stroke-miterlimit="4" stroke="#484848" stroke-width="4"><g><path d="M 250 130C 250.5 161.9 237 190.4 217.2 212.4C 195.9 236.1 164.3 251.5 130 250C 108.4 249 87.3 245.8 70.7 234.3C 53.3 222.4 38.1 208.1 26.4 190.6C 15 173.5 9.8 152.1 10 130C 10.4 97.2 24.3 68.4 44.6 45.7C 65.2 22.7 96.6 8.9 130 10C 162.7 11.1 192.2 23.4 214.1 44.4C 236.5 65.9 248.4 96.5 250 130"></path><path d="M 250 130C 250 196.2742 196.2742 250 130 250C 63.7258 250 10 196.2742 10 130C 10 63.7258 63.7258 10 130 10C 196.2742 10 250 63.7258 250 130Z"></path></g></g></g><g id="g-root-4.cu_sy_1d2dx0b10yaozn-stroke" data-item-order="-304118" transform="translate(232.0087890625, 352)"><g id="4.cu_sy_1d2dx0b10yaozn-stroke" fill="none" stroke-linecap="round" stroke-linejoin="round" stroke-miterlimit="4" stroke="#484848" stroke-width="4"><g><path d="M 585.991211 70C 572.991211 68.8 559.791211 69.2 546.691211 70C 531.691211 70.9 516.691211 70.6 501.691211 70C 486.891211 69.4 471.991211 70.8 457.191211 70C 444.491211 69.3 431.591211 71.4 418.891211 70C 403.891211 68.3 388.591211 71.7 373.591211 70C 360.891211 68.6 347.991211 70.1 335.091211 70C 319.991211 69.9 304.791211 69.2 289.691211 70C 275.091211 70.8 260.491211 70.9 245.991211 70C 231.691211 69.2 217.391211 70 203.091211 70C 190.691211 70 178.291211 71.5 165.991211 70C 140.991211 59.5 116.091211 48.8 91.391211 37.5C 70.591211 27.9 48.691211 20.8 28.491211 10C 25.391211 23.4 18.291211 35.4 9.991211 46C 26.791211 58.2 43.291211 70.8 59.291211 84C 75.991211 97.6 94.591211 108.8 110.491211 123.3C 127.691211 139 148.791211 150.3 165.991211 166C 182.191211 166.2 198.491211 165.1 214.691211 166C 231.591211 167 248.691211 164.6 265.691211 166C 280.891211 167.3 296.191211 164.7 311.491211 166C 326.691211 167.3 341.991211 166.4 357.191211 166C 373.591211 165.5 390.091211 167 406.491211 166C 420.391211 165.1 434.491211 166.9 448.391211 166C 463.991211 165 479.891211 164 495.391211 166C 510.691211 167.9 526.191211 167.4 541.591211 166C 556.291211 164.6 571.191211 165.2 585.991211 166C 584.791211 150.6 585.991211 135.2 585.991211 119.8C 585.991211 103.2 587.591211 86.5 585.991211 70"></path><path d="M 585.9912 70L 165.9912 70L 28.4976 10C 24.3791 23.1129 18.0703 35.2558 10 46L 165.9912 166L 585.9912 166L 585.9912 70Z"></path></g></g></g><g id="g-root-3.cu_sy_1d2dx0b10yaozo-stroke" data-item-order="-304114" transform="translate(250.50634765625, 316)"><g id="3.cu_sy_1d2dx0b10yaozo-stroke" fill="none" stroke-linecap="round" stroke-linejoin="round" stroke-miterlimit="4" stroke="#484848" stroke-width="4"><g><path d="M 567.493652 10C 548.793652 8.9 529.993652 8.7 511.393652 10C 491.293652 11.4 471.093652 10 450.993652 10C 429.593652 9.9 408.193652 11.5 386.993652 10C 367.593652 8.7 348.193652 11 328.893652 10C 308.693652 9 288.393652 11 268.293652 10C 248.893652 9 229.393652 11.3 210.093652 10C 189.293652 8.6 168.293652 9.3 147.493652 10C 123.393652 10.9 99.293652 8.8 75.193652 10C 55.293652 11 35.393652 10 15.493652 10C 16.693652 22.5 12.893652 34.4 9.993652 46C 25.393652 54.4 41.893652 60.6 58.193652 67C 73.693652 73.1 88.593652 80.7 103.993652 87C 118.693652 93 133.493652 98.6 147.493652 106C 169.593652 106.6 191.793652 106.3 213.893652 106C 236.593652 105.7 259.293652 105.9 281.993652 106C 304.393652 106.1 326.793652 104.9 349.193652 106C 371.993652 107.1 394.993652 107.9 417.693652 106C 444.693652 103.7 471.893652 106 498.993652 106C 521.793652 106 544.693652 105.6 567.493652 106C 566.893652 91.1 567.593652 76.2 567.493652 61.3C 567.393652 44.2 566.493652 27.1 567.493652 10"></path><path d="M 567.4937 10L 147.4936 10L 15.4936 10C 15.4936 22.5425 13.5694 34.6355 10 46L 147.4936 106L 567.4937 106L 567.4937 10Z"></path></g></g></g><g id="g-root-2.cu_sy_147dduj10yamml-stroke" data-item-order="-304110" transform="translate(250.50634765625, 220)"><g id="2.cu_sy_147dduj10yamml-stroke" fill="none" stroke-linecap="round" stroke-linejoin="round" stroke-miterlimit="4" stroke="#484848" stroke-width="4"><g><path d="M 567.493652 10C 551.193652 11.6 534.693652 8.7 518.293652 10C 499.993652 11.4 481.593652 9.9 463.193652 10C 447.093652 10.1 430.993652 9.3 414.893652 10C 396.493652 10.8 377.993652 9.3 359.593652 10C 341.993652 10.7 324.193652 8.2 306.693652 10C 290.493652 11.7 273.993652 10 257.693652 10C 239.993652 10 222.193652 9.4 204.493652 10C 185.493652 10.7 166.493652 11.2 147.493652 10C 125.493652 19.9 103.693652 30.3 81.193652 38.9C 56.993652 48.2 33.993652 60.2 9.993652 70C 12.793652 81.6 16.993652 93.5 15.493652 106C 29.593652 106.8 43.693652 106.3 57.893652 106C 72.793652 105.7 87.793652 107.1 102.693652 106C 117.593652 104.9 132.593652 105.2 147.493652 106C 166.893652 107 186.293652 105.1 205.693652 106C 225.193652 106.9 244.693652 106.8 264.193652 106C 285.593652 105.1 307.093652 105.5 328.493652 106C 350.093652 106.5 371.793652 104.7 393.493652 106C 413.793652 107.3 434.193652 105.3 454.593652 106C 473.293652 106.7 492.093652 104.5 510.793652 106C 529.593652 107.5 548.693652 104.4 567.493652 106C 565.693652 90.5 566.893652 74.8 567.493652 59.2C 568.093652 42.8 568.793652 26.4 567.493652 10"></path><path d="M 567.4937 10L 147.4936 10L 10 70C 13.5694 81.3645 15.4936 93.4575 15.4936 106L 147.4936 106L 567.4937 106L 567.4937 10Z"></path></g></g></g><g id="g-root-1.cu_sy_147dduj10yammm-stroke" data-item-order="-304106" transform="translate(232.0087890625, 124)"><g id="1.cu_sy_147dduj10yammm-stroke" fill="none" stroke-linecap="round" stroke-linejoin="round" stroke-miterlimit="4" stroke="#484848" stroke-width="4"><g><path d="M 585.991211 10C 564.991211 9.6 543.891211 8 522.891211 10C 500.091211 12.2 476.891211 8.2 453.991211 10C 429.591211 11.9 404.991211 8.2 380.691211 10C 356.091211 11.8 331.391211 10.3 306.691211 10C 285.391211 9.7 263.991211 11.3 242.691211 10C 217.191211 8.5 191.591211 10.3 165.991211 10C 149.291211 20.9 133.391211 33.1 118.591211 46.5C 100.591211 62.7 80.891211 77.2 60.891211 90.9C 43.191211 102.9 27.791211 118.2 9.991211 130C 17.691211 141 23.591211 153.1 28.491211 166C 52.691211 154.9 77.191211 144.7 101.591211 134.1C 123.091211 124.8 144.691211 115.8 165.991211 106C 186.291211 105.7 206.791211 107.7 226.991211 106C 247.091211 104.3 267.291211 106.9 287.391211 106C 305.691211 105.2 324.091211 106.5 342.391211 106C 361.491211 105.5 380.591211 104.2 399.591211 106C 422.191211 108.2 445.091211 106.3 467.791211 106C 486.891211 105.8 505.991211 106.4 525.091211 106C 545.391211 105.6 565.691211 106.7 585.991211 106C 585.791211 74 587.491211 42 585.991211 10"></path><path d="M 585.9912 10L 165.9912 10L 10 130C 18.0703 140.7442 24.3791 152.8871 28.4976 166L 165.9912 106L 585.9912 106L 585.9912 10Z"></path></g></g></g><g id="g-root-tx_explorin_147dduj10yammn-stroke" data-item-order="0" transform="translate(136, 28)"></g><g id="g-root-shie_i0wcbf10yammd-stroke" data-item-order="0" transform="translate(424, 148)"><g id="shie_i0wcbf10yammd-stroke" fill="none" stroke-linecap="round" stroke-linejoin="round" stroke-miterlimit="4" stroke="#484848" stroke-width="2"><g><path d="M 55 11C 56 11 57 12 57 13C 57.400002 18 58.400002 23.4 57 28.200001C 58.799999 41.799999 47.599998 54.400002 34.200001 57C 20.6 54 9.8 42.200001 11 28.4C 11.4 23.4 11.2 18.200001 11 13C 11 12 12 11.2 13 11C 26.799999 9.2 41 10 55 11M 43 39C 43.200001 39.599998 42.799999 40 42.400002 40.400002C 42 40.799999 41.599998 40.799999 41 41C 36.599998 42.400002 31.799999 41.200001 27 41C 26 41 25.4 40.200001 25 39.200001C 23.799999 35.400002 25.200001 31.200001 25 27.4C 25 26.200001 25.799999 25.200001 27 25.4C 31.6 26.4 36.400002 26.6 41 25.200001C 42 25 43.200001 26.200001 43 27.200001C 42.400002 31.200001 43.400002 35.200001 43 39M 34 17C 30.6 16.4 27.6 19.799999 28 23C 28 23.799999 28 24.6 28 25.4C 31.799999 26.4 36 24.6 40 25.200001C 39.799999 24.6 40.200001 23.799999 40 23C 38.799999 19.799999 37 15.8 34 17M 31.6 33.200001C 31.799999 34.599998 32.599998 35.799999 34 35.599998C 35.400002 35.599998 36 34.400002 36.599998 33.200001C 37 31.799999 35.400002 30.6 34 30.6C 32.599998 30.799999 31.6 31.799999 31.6 33.200001"></path><path d="M 55 11.059999C 56.104568 11.059999 57 11.955431 57 13.059999L 56.984001 28.200001C 57.075123 41.99398 47.563793 53.996471 34.113998 57.060001C 20.639263 54.11869 11.02043 42.205975 10.984 28.414L 11.01 13.07C 11.01 11.96543 11.905431 11.07 13.01 11.07ZM 43.032001 39.02C 43.03466 39.552162 42.825123 40.063446 42.44976 40.440681C 42.074398 40.817921 41.564171 41.030006 41.031998 41.029999L 27.032 41.091999C 25.931324 41.092014 25.037502 40.20266 25.032 39.101997L 24.978001 27.354C 24.978001 26.24943 25.87343 25.354 26.978001 25.354L 40.978001 25.292C 42.078674 25.291986 42.972496 26.181337 42.978001 27.282ZM 33.931999 17.059999L 33.931999 17.059999C 30.618277 17.075428 27.9445 19.774277 27.960001 23.088001L 27.959999 25.34L 39.959999 25.285999L 39.959999 23.034C 39.945675 19.719494 37.246502 17.044502 33.931999 17.060001ZM 31.506001 33.186001C 31.506001 34.566711 32.62529 35.686001 34.006001 35.686001C 35.386711 35.686001 36.506001 34.566711 36.506001 33.186001C 36.506001 31.805288 35.386711 30.686001 34.006001 30.686001C 32.62529 30.686001 31.506001 31.805288 31.506001 33.186001Z"></path></g></g></g><g id="g-root-tx_security_mg3dcr10yaozt-stroke" data-item-order="0" transform="translate(484, 160)"></g><g id="g-root-spee_dg34nv10xqz9f-stroke" data-item-order="0" transform="translate(424, 244)"><g id="spee_dg34nv10xqz9f-stroke" fill="none" stroke-linecap="round" stroke-linejoin="round" stroke-miterlimit="4" stroke="#484848" stroke-width="2"><g><path d="M 11 34C 8.4 46.400002 21.4 57.200001 34 57C 46.799999 56.799999 56 46.599998 57 34C 58 21.4 46.799999 11.6 34 11C 21.4 10.4 8.4 21.6 11 34M 31 34C 30.799999 35.599998 32.400002 36.400002 34 37C 35.599998 37.599998 36.799999 35.599998 37 34C 37.200001 32.400002 35.599998 31.200001 34 31C 32.400002 30.6 31.6 32.400002 31 34M 36.200001 31.799999C 40.400002 29.799999 44 26.200001 46 22M 14.8 33C 16.200001 33.200001 17.6 33 18.799999 33M 16.4 41.200001C 17.799999 41.200001 18.799999 39.799999 20.200001 39.799999M 51.599998 41.200001C 50.200001 41 49 40.400002 47.799999 39.799999M 53 33C 51.599998 33.200001 50.200001 33.400002 49 33M 51.599998 26.799999C 50.200001 27 48.799999 27.4 47.799999 28.200001M 42.599998 16.4C 42 17.6 41 18.799999 41 20.200001M 35 15.4C 35.400002 16.6 34.599998 18 35 19.4M 26.799999 16.4C 27 17.799999 27.4 19.200001 28.200001 20.200001M 20.6 20.6C 21.4 21.6 22.6 22.200001 23.4 23.4M 16.4 26.799999C 17.799999 27 19 27.6 20.200001 28.200001M 26 43C 31.4 43 36.599998 42.799999 42 43C 42 43 42.799999 43 43 44C 43.200001 45.400002 42.799999 46.599998 43 48C 43 48 43 48.799999 42 49C 36.799999 50.200001 31.4 49.200001 26 49C 26 49 25 49 25 48C 25 46.599998 25 45.400002 25 44C 25 44 25 43 26 43"></path><path d="M 11 34C 11 46.702549 21.297451 57 34 57C 46.702549 57 57 46.702549 57 34C 57 21.297451 46.702549 11 34 11C 21.297451 11 11 21.297451 11 34M 31 34C 31 35.656853 32.343147 37 34 37C 35.656853 37 37 35.656853 37 34C 37 32.343147 35.656853 31 34 31C 32.343147 31 31 32.343147 31 34M 36.122002 31.879999L 46.02 21.98M 14.888 33L 18.888 33M 16.444 41.27L 20.142 39.739998M 51.551998 41.271999L 47.858002 39.739998M 52.998001 33L 49 32.998001M 51.551998 26.73L 47.858002 28.26M 42.532001 16.448L 41 20.139999M 35 15.37L 35 19.369999M 26.73 16.445999L 28.26 20.139999M 20.566 20.563999L 23.392 23.392M 16.448 26.728001L 20.142 28.26M 26 43L 42 43C 42 43 43 43 43 44L 43 48C 43 48 43 49 42 49L 26 49C 26 49 25 49 25 48L 25 44C 25 44 25 43 26 43"></path></g></g></g><g id="g-root-tx_performa_mg3dcr10yaozu-stroke" data-item-order="0" transform="translate(484, 256)"></g><g id="g-root-tx_loansyst_zrjvq310yanew-stroke" data-item-order="0" transform="translate(64, 280)"></g><g id="g-root-sync_1lt17q310xsdfy-stroke" data-item-order="0" transform="translate(424, 340)"><g id="sync_1lt17q310xsdfy-stroke" fill="none" stroke-linecap="round" stroke-linejoin="round" stroke-miterlimit="4" stroke="#484848" stroke-width="2"><g><path d="M 13 15C 26.799999 13.4 41 15.6 55 15C 55 15 57 15 57 17C 57.599998 29.6 55.599998 42.400002 57 55C 57 55 57 57.200001 55 57C 41.200001 55 26.6 60.200001 13 57C 13 57 11.2 57 11 55C 9.4 42.400002 13 29.6 11 17C 11 17 11 14.8 13 15M 21 11C 21.799999 14.2 21.4 17.6 21 21M 47 11C 46.799999 14.4 46.599998 17.6 47 21M 11 25C 26.200001 23 42.200001 21.4 57 25M 44 31C 43.400002 33.599998 44 36.400002 44 39C 41.400002 39.200001 38.599998 39.200001 36 39M 43.799999 39C 44.599998 34.400002 38.799999 31.799999 34.200001 31C 29.4 30 25.200001 34.200001 24.200001 38.799999C 23.200001 43.400002 25.4 48.400002 29.799999 50C 34.200001 51.799999 39.200001 50.799999 42 47"></path><path d="M 13 15.002L 55 15.002C 55 15.002 57 15.002 57 17.001999L 57 55.001999C 57 55.001999 57 57.001999 55 57.001999L 13 57.001999C 13 57.001999 11 57.001999 11 55.001999L 11 17.001999C 11 17.001999 11 15.002 13 15.002M 21 11.002L 21 21.001999M 47 11.002L 47 21.001999M 11 25.001999L 57 25.001999M 44 31.002001L 44 39.001999L 36 39.001999M 43.799999 39C 42.858032 34.38018 38.817116 31.045931 34.102478 30.998371C 29.38784 30.950809 25.280479 34.202858 24.245506 38.802742C 23.210535 43.402618 25.529158 48.100513 29.809809 50.076897C 34.090462 52.053276 39.170067 50.771145 42 47"></path></g></g></g><g id="g-root-tx_versioni_mg3dcr10yaozv-stroke" data-item-order="0" transform="translate(484, 352)"></g><g id="g-root-open_zlxp3v10xttz5-stroke" data-item-order="0" transform="translate(424, 436)"><g id="open_zlxp3v10xttz5-stroke" fill="none" stroke-linecap="round" stroke-linejoin="round" stroke-miterlimit="4" stroke="#484848" stroke-width="2"><g><path d="M 34 56.285713C 27.485714 52.514286 22 47.371429 14.8 46.342857C 13.085714 46 12.057143 44.628574 11.714286 42.914288C 10 33.657143 14.457143 24.057142 11.714286 15.142858C 11.371428 14.114285 12.057143 13.085714 13.085714 12.4C 13.771429 12.057143 14.8 12.057143 15.485714 11.714286C 22.685715 10.685715 27.828571 17.885714 34 21.657143C 33.314285 33.314285 37.771431 45.314285 34 56.285713M 34 56.285713C 39.485718 51.485718 45.657143 47.028572 53.200001 46.342857C 54.914288 45.314285 56.285713 44.628574 56.285713 42.914288C 55.942856 33.657143 58 24.057142 56.285713 15.142858C 55.942856 14.114285 55.600002 13.428572 55.257141 12.4C 54.57143 11.714286 53.200001 11.371428 52.514286 11.714286C 45.314285 13.428572 38.114285 15.828571 34 21.657143C 31.6 32.971428 35.028572 44.628574 34 56.285713"></path><path d="M 34 56.285713C 28.977961 50.756668 22.167301 47.175304 14.765715 46.171429C 13.020795 45.978348 11.703636 44.498394 11.714286 42.742859L 11.714286 15.142858C 11.71422 14.140645 12.152671 13.188581 12.914286 12.537143C 13.66217 11.89782 14.648675 11.610611 15.622857 11.748571C 22.70043 12.923223 29.175032 16.450432 34 21.76ZM 34 56.285713C 39.022041 50.756668 45.832703 47.175304 53.234287 46.171429C 54.979206 45.978348 56.296364 44.498394 56.285713 42.742859L 56.285713 15.142858C 56.285782 14.140645 55.847332 13.188581 55.085712 12.537143C 54.33783 11.89782 53.351326 11.610611 52.377144 11.748571C 45.299572 12.923223 38.82497 16.450432 34 21.76Z"></path></g></g></g><g id="g-root-tx_document_i0wcbf10yammc-stroke" data-item-order="0" transform="translate(484, 448)"></g></g></g></svg>